<?xml version="1.0" encoding="UTF-8"?>
<svg version="1.1" xmlns="http://www.w3.org/2000/svg" width="254" height="181">
<path d="M0 0 C3.65607828 2.99832588 6.96148963 6.27538233 10.234375 9.68359375 C11.26498047 10.72 11.26498047 10.72 12.31640625 11.77734375 C24.8675867 25.12151818 29.77530527 42.93335527 29.484375 60.84375 C28.31932735 78.73815376 20.25684348 96.22946829 7.234375 108.68359375 C-6.61154556 120.59230893 -22.27066691 127.3103334 -40.578125 127.12109375 C-41.63056396 127.11207031 -42.68300293 127.10304687 -43.76733398 127.09375 C-62.31693123 126.68233036 -78.76820058 119.0867235 -91.8203125 105.953125 C-105.19874847 91.6166092 -111.50822524 73.205406 -111.015625 53.77734375 C-110.27514824 38.04961729 -104.45835627 24.85271146 -94.765625 12.68359375 C-94.29511719 12.04808594 -93.82460937 11.41257812 -93.33984375 10.7578125 C-71.92239995 -16.72474813 -27.26312355 -20.32670937 0 0 Z M-49.765625 61.68359375 C-51.06621564 64.41544971 -51.06621564 64.41544971 -51.765625 67.68359375 C-50.45695436 70.62810269 -49.67159637 72.23060806 -46.765625 73.68359375 C-41.43595292 74.02451416 -41.43595292 74.02451416 -36.765625 71.68359375 C-37.34950226 65.97605961 -37.34950226 65.97605961 -40.765625 61.68359375 C-43.79366756 61.35013258 -46.73239627 61.45467083 -49.765625 61.68359375 Z M-87.765625 89.68359375 C-87.435625 90.67359375 -87.105625 91.66359375 -86.765625 92.68359375 C-86.765625 91.69359375 -86.765625 90.70359375 -86.765625 89.68359375 C-87.095625 89.68359375 -87.425625 89.68359375 -87.765625 89.68359375 Z M-84.765625 93.68359375 C-83.32308843 97.04951241 -81.43297773 99.19406454 -78.765625 101.68359375 C-78.105625 101.35359375 -77.445625 101.02359375 -76.765625 100.68359375 C-77.9084169 99.51394773 -79.05494215 98.34794819 -80.203125 97.18359375 C-80.84121094 96.53390625 -81.47929688 95.88421875 -82.13671875 95.21484375 C-83.51445427 93.56943899 -83.51445427 93.56943899 -84.765625 93.68359375 Z M-76.765625 101.68359375 C-75.775625 103.16859375 -75.775625 103.16859375 -74.765625 104.68359375 C-74.105625 104.35359375 -73.445625 104.02359375 -72.765625 103.68359375 C-74.085625 103.02359375 -75.405625 102.36359375 -76.765625 101.68359375 Z M-72.765625 104.68359375 C-71.775625 105.67359375 -70.785625 106.66359375 -69.765625 107.68359375 C-69.105625 107.35359375 -68.445625 107.02359375 -67.765625 106.68359375 C-70.240625 105.69359375 -70.240625 105.69359375 -72.765625 104.68359375 Z " fill="#221F1C" transform="translate(169.765625,38.31640625)"/>
<path d="M0 0 C15.08160856 0.05010501 25.94318807 5.47501724 37.2578125 14.828125 C39.49065976 16.59659092 41.40443588 17.88229296 44 19 C44.33 18.34 44.66 17.68 45 17 C46.32 17 47.64 17 49 17 C49 15.68 49 14.36 49 13 C48.01 12.505 48.01 12.505 47 12 C50.73522495 12.54641937 52.10493159 13.85501651 54.375 16.8125 C65.81931084 32.30898099 70.05196096 50.68300008 67.50390625 69.703125 C63.74222784 89.00032274 53.1157963 105.39945461 37.24609375 116.890625 C25.20240035 124.71685176 12.49408261 128.5853836 -1.8125 128.4375 C-3.39115845 128.42396484 -3.39115845 128.42396484 -5.00170898 128.41015625 C-24.38164239 127.98032022 -39.97066383 119.85486215 -53.68359375 106.5390625 C-56 104 -56 104 -56 102 C-53.98177083 102.09765625 -51.96354167 102.1953125 -49.9453125 102.29296875 C-48.98238281 102.14794922 -48.98238281 102.14794922 -48 102 C-47.34 101.01 -46.68 100.02 -46 99 C-46.43570313 98.42894531 -46.87140625 97.85789062 -47.3203125 97.26953125 C-55.36630609 86.31513738 -61 74.78923893 -61 61 C-59.68 61 -58.36 61 -57 61 C-56.82984375 62.03898437 -56.6596875 63.07796875 -56.484375 64.1484375 C-55.22326916 71.5075376 -53.90305762 78.28015769 -50.671875 85.08203125 C-50 87 -50 87 -51 90 C-50.34 90 -49.68 90 -49 90 C-48.525625 90.99 -48.05125 91.98 -47.5625 93 C-43.28215996 100.44538022 -35.14239302 107.20485016 -27 110 C-22.3306595 110.66421616 -17.71328721 110.92625013 -13 111 C-12.855625 110.401875 -12.71125 109.80375 -12.5625 109.1875 C-12.1127561 107.43849596 -11.57107659 105.71322977 -11 104 C-11.75023437 103.72027344 -12.50046875 103.44054687 -13.2734375 103.15234375 C-27.20339074 97.696153 -37.92042269 89.80774303 -44.2578125 75.87109375 C-46.26211556 70.81814026 -47.26538311 66.44035384 -47 61 C-46.01 61 -45.02 61 -44 61 C-43.70867187 62.05058594 -43.41734375 63.10117188 -43.1171875 64.18359375 C-40.98689363 71.57536136 -38.96507493 78.09478573 -34.234375 84.30078125 C-33 86 -33 86 -32 89 C-29.90280128 90.02281518 -29.90280128 90.02281518 -27.4375 90.6875 C-26.61121094 90.93886719 -25.78492188 91.19023437 -24.93359375 91.44921875 C-24.29550781 91.63097656 -23.65742187 91.81273437 -23 92 C-23 91.01 -23 90.02 -23 89 C-21.02 88.505 -21.02 88.505 -19 88 C-19.804375 87.773125 -20.60875 87.54625 -21.4375 87.3125 C-22.283125 86.879375 -23.12875 86.44625 -24 86 C-24.34473706 84.33565471 -24.67642423 82.66858851 -25 81 C-26.31296296 78.68364667 -26.31296296 78.68364667 -27.9375 76.5 C-33.79407808 68.32669201 -34.14582047 59.76530193 -33 50 C-30.66645529 41.75967024 -25.30344906 35.51732234 -17.98828125 31.23828125 C-9.79822261 27 -9.79822261 27 -6 27 C-5.505 29.97 -5.505 29.97 -5 33 C-5.54527344 33.12375 -6.09054688 33.2475 -6.65234375 33.375 C-14.28278403 35.46195803 -20.02467326 39.55300628 -24.453125 46.171875 C-27.66527449 52.55093243 -27.99216238 58.66996684 -26.41015625 65.57421875 C-23.78096174 73.48603448 -18.45361923 78.67637258 -11.125 82.5 C-2.4855512 83.88231181 5.36065682 83.65116472 13 79 C18.64853889 74.08367911 21.58331262 69.17656416 22.3359375 61.6328125 C22.42734325 53.42457638 22.16542089 47.40747924 16.38671875 41.29296875 C12.88200934 38.09909831 9.28265263 36.05687964 5 34 C5.15146484 34.77601562 5.30292969 35.55203125 5.45898438 36.3515625 C6.14699927 39.89960238 6.82358424 43.44973134 7.5 47 C7.85771484 48.83111328 7.85771484 48.83111328 8.22265625 50.69921875 C11.18909027 66.37894144 11.18909027 66.37894144 9.08203125 71.0234375 C4.92331066 75.45087542 2.23299857 76.92678693 -3.8125 77.125 C-5.3903125 77.063125 -5.3903125 77.063125 -7 77 C-7 76.67 -7 76.34 -7 76 C-5.02 76 -3.04 76 -1 76 C-1 75.34 -1 74.68 -1 74 C-0.34 73.67 0.32 73.34 1 73 C0.5020163 69.26512223 0.12508244 67.18762365 -2 64 C-3.96361864 63.42251197 -3.96361864 63.42251197 -6.125 63.3125 C-7.40375 63.209375 -8.6825 63.10625 -10 63 C-8.25 59.125 -8.25 59.125 -6 58 C-4.45976004 57.93049459 -2.91665012 57.91547643 -1.375 57.9375 C-0.14910156 57.95103516 -0.14910156 57.95103516 1.1015625 57.96484375 C1.72804687 57.97644531 2.35453125 57.98804688 3 58 C2.82609741 57.17761841 2.82609741 57.17761841 2.64868164 56.33862305 C-1.57759865 36.20834947 -1.57759865 36.20834947 -2 27 C7.95161614 27.0423473 14.27566947 31.10975708 22 37 C22.66 35.35 23.32 33.7 24 32 C24.99 32 25.98 32 27 32 C26.636622 29.32946011 26.25408089 28.22739405 24.21484375 26.40234375 C16.3890961 21.36862957 9.09829782 18.79017434 0 17 C0 16.01 0 15.02 0 14 C8.96608218 12.92407014 17.4974408 16.71168782 24.6796875 21.95703125 C26.53430236 23.57734424 28.30192886 25.21755266 30 27 C30.99 26.01 31.98 25.02 33 24 C34.32 24.66 35.64 25.32 37 26 C37 24.68 37 23.36 37 22 C36.01 21.01 36.01 21.01 35 20 C34.71125 19.360625 34.4225 18.72125 34.125 18.0625 C30.54911395 11.50670892 20.79008364 8.10147018 14 6 C9.35593948 4.87167247 4.6946464 3.89292986 0 3 C0 2.01 0 1.02 0 0 Z " fill="#221F1C" transform="translate(131,37)"/>
<path d="M0 0 C0.33 1.98 0.66 3.96 1 6 C0.45472656 6.12375 -0.09054688 6.2475 -0.65234375 6.375 C-8.28278403 8.46195803 -14.02467326 12.55300628 -18.453125 19.171875 C-21.66527449 25.55093243 -21.99216238 31.66996684 -20.41015625 38.57421875 C-17.78096174 46.48603448 -12.45361923 51.67637258 -5.125 55.5 C3.5144488 56.88231181 11.36065682 56.65116472 19 52 C24.64853889 47.08367911 27.58331262 42.17656416 28.3359375 34.6328125 C28.42734325 26.42457638 28.16542089 20.40747924 22.38671875 14.29296875 C18.88200934 11.09909831 15.28265263 9.05687964 11 7 C11.22719727 8.16402344 11.22719727 8.16402344 11.45898438 9.3515625 C12.14699927 12.89960238 12.82358424 16.44973134 13.5 20 C13.73847656 21.22074219 13.97695312 22.44148438 14.22265625 23.69921875 C17.18909027 39.37894144 17.18909027 39.37894144 15.08203125 44.0234375 C10.92331066 48.45087542 8.23299857 49.92678693 2.1875 50.125 C1.135625 50.08375 0.08375 50.0425 -1 50 C-1 49.67 -1 49.34 -1 49 C0.98 49 2.96 49 5 49 C5 48.34 5 47.68 5 47 C5.66 46.67 6.32 46.34 7 46 C6.5020163 42.26512223 6.12508244 40.18762365 4 37 C2.03638136 36.42251197 2.03638136 36.42251197 -0.125 36.3125 C-1.40375 36.209375 -2.6825 36.10625 -4 36 C-2.25 32.125 -2.25 32.125 0 31 C1.54023996 30.93049459 3.08334988 30.91547643 4.625 30.9375 C5.85089844 30.95103516 5.85089844 30.95103516 7.1015625 30.96484375 C7.72804687 30.97644531 8.35453125 30.98804687 9 31 C8.82609741 30.17761841 8.82609741 30.17761841 8.64868164 29.33862305 C4.42240135 9.20834947 4.42240135 9.20834947 4 0 C13.01826219 0.03837558 19.37299289 2.78880423 26.04296875 8.859375 C32.27708394 15.50555325 35.19281706 21.79137554 35.5 30.9375 C35.14438045 41.59461498 31.52217049 48.59804685 24 56 C23.236875 56.763125 22.47375 57.52625 21.6875 58.3125 C14.00462036 63.13663373 5.24320567 64.13857854 -3.5703125 62.53125 C-12.90535897 60.13325641 -18.64349062 55.28492112 -23.7734375 47.24609375 C-28.22634435 39.09188534 -28.65766583 28.85363246 -26.125 19.91015625 C-21.59992251 10.24971122 -11.31597207 0 0 0 Z " fill="#EFEFEC" transform="translate(125,64)"/>
<path d="M0 0 C2.85505551 1.32690906 5.17834872 2.83956205 7.625 4.8125 C13.75144071 9.48734002 20.59393683 12.85613961 28 15 C26.125 21.75 26.125 21.75 25 24 C11.30726257 22.55865922 11.30726257 22.55865922 8.375 19.0625 C7.694375 18.0415625 7.694375 18.0415625 7 17 C6.154375 16.505 5.30875 16.01 4.4375 15.5 C1.70107611 13.81604683 1.29187193 12.84211825 0 10 C-1.29470975 8.62913085 -2.62150897 7.28659163 -4 6 C-3.34 5.566875 -2.68 5.13375 -2 4.6875 C-1.01 3.8521875 -1.01 3.8521875 0 3 C0 2.01 0 1.02 0 0 Z " fill="#201E1A" transform="translate(93,125)"/>
<path d="M0 0 C0.33 1.98 0.66 3.96 1 6 C0.45472656 6.12375 -0.09054688 6.2475 -0.65234375 6.375 C-7.99809598 8.38409463 -14.13673094 12.25422648 -18.14111328 18.89135742 C-21.21487043 24.9852202 -21.49365714 30.3291286 -21.25 37.0625 C-21.23195313 38.02349609 -21.21390625 38.98449219 -21.1953125 39.97460938 C-21.14868796 42.31749227 -21.08328169 44.6581829 -21 47 C-21.99 47 -22.98 47 -24 47 C-26.59807592 41.72784062 -27.55234057 37.54831839 -27.5 31.6875 C-27.49427979 30.94129395 -27.48855957 30.19508789 -27.48266602 29.42626953 C-27.21702705 21.18162298 -24.37049832 15.40207163 -18.9375 9.25 C-14.0792233 4.73491282 -6.74872602 0 0 0 Z " fill="#F4F3F1" transform="translate(125,64)"/>
<path d="M0 0 C16.03450656 0.05327079 28.3608658 6.48572172 40 17 C47.91279643 25.01674121 55.38682971 37.29298192 56.1953125 48.7734375 C56.17210937 49.63195312 56.14890625 50.49046875 56.125 51.375 C56.10695312 52.24898437 56.08890625 53.12296875 56.0703125 54.0234375 C56.04710937 54.67570312 56.02390625 55.32796875 56 56 C55.01 56 54.02 56 53 56 C52.90203125 55.34515625 52.8040625 54.6903125 52.703125 54.015625 C49.86550601 36.69636425 43.30438861 23.6917474 29 13 C20.03802639 7.2064009 10.30783641 5.07622297 0 3 C0 2.01 0 1.02 0 0 Z " fill="#DEDED9" transform="translate(131,37)"/>
<path d="M0 0 C1.32 0 2.64 0 4 0 C4.25523438 1.55847656 4.25523438 1.55847656 4.515625 3.1484375 C5.77673084 10.5075376 7.09694238 17.28015769 10.328125 24.08203125 C11 26 11 26 10 29 C10.66 29 11.32 29 12 29 C12.474375 29.99 12.94875 30.98 13.4375 32 C16.25759613 37.01464366 20.60997167 40.38854507 25 44 C24.67 44.66 24.34 45.32 24 46 C22.02 45.01 20.04 44.02 18 43 C16.85773284 45.28453433 15.93746527 47.62508799 15 50 C12 50 12 50 10.17578125 48.5390625 C9.56089844 47.90742188 8.94601563 47.27578125 8.3125 46.625 C7.68988281 45.99851563 7.06726563 45.37203125 6.42578125 44.7265625 C5 43 5 43 5 41 C7.01822917 41.09765625 9.03645833 41.1953125 11.0546875 41.29296875 C12.01761719 41.14794922 12.01761719 41.14794922 13 41 C13.66 40.01 14.32 39.02 15 38 C14.56429687 37.42894531 14.12859375 36.85789063 13.6796875 36.26953125 C5.63369391 25.31513738 0 13.78923893 0 0 Z " fill="#2A2724" transform="translate(70,98)"/>
<path d="M0 0 C0.99 0 1.98 0 3 0 C3.29132813 1.05058594 3.58265625 2.10117188 3.8828125 3.18359375 C6.01310637 10.57536136 8.03492507 17.09478573 12.765625 23.30078125 C14 25 14 25 15 28 C16.82978795 29.06123844 16.82978795 29.06123844 19 30 C20.03253906 30.69416016 20.03253906 30.69416016 21.0859375 31.40234375 C28.01584807 36.04987763 34.82695643 37.65745394 43 39 C43 40.32 43 41.64 43 43 C29.26364143 41.58739575 18.06941621 36.34684665 9.09765625 25.75390625 C3.30857843 18.10449052 -0.3585944 9.69639248 0 0 Z " fill="#E7E6E2" transform="translate(84,98)"/>
<path d="M0 0 C9.12447243 -1.09493669 17.63590853 2.82345621 24.9140625 8.12109375 C34.46731628 16.44772129 41.42040032 25.72970445 42.75 38.625 C42.84865322 40.08237713 42.93789823 41.54060837 43 43 C41.68 42.67 40.36 42.34 39 42 C38.92523438 41.34515625 38.85046875 40.6903125 38.7734375 40.015625 C37.08636752 28.30537456 32.69488097 19.40819325 23.49609375 11.8359375 C16.21848435 6.48307925 8.8136616 4.77348069 0 3 C0 2.01 0 1.02 0 0 Z " fill="#E0DEDB" transform="translate(131,51)"/>
<path d="M0 0 C1.27276283 1.90914424 2.5069865 3.84497749 3.6875 5.8125 C7.7244651 11.3769654 12.1422992 15.49130582 19 17 C21.99457441 17.41864938 24.98721701 17.74558721 28 18 C27.67 18.66 27.34 19.32 27 20 C24.69 20 22.38 20 20 20 C20 20.66 20 21.32 20 22 C17.4497045 22.95636081 15.65712438 23.23184832 13.0625 22.31640625 C6.54406022 19.14360507 1.47351496 15.54623974 -2 9 C-1.8125 6.375 -1.8125 6.375 -1 4 C-0.814375 3.236875 -0.62875 2.47375 -0.4375 1.6875 C-0.293125 1.130625 -0.14875 0.57375 0 0 Z " fill="#AEADAA" transform="translate(104,103)"/>
<path d="M0 0 C4.82174088 3.24815354 6.7849032 6.77006723 9.1875 11.875 C9.52974609 12.56980469 9.87199219 13.26460937 10.22460938 13.98046875 C13.0002373 19.7041908 15.30006549 24.89757694 15.125 31.375 C15.10695312 32.24898437 15.08890625 33.12296875 15.0703125 34.0234375 C15.03550781 35.00183594 15.03550781 35.00183594 15 36 C14.01 36 13.02 36 12 36 C11.90203125 35.34515625 11.8040625 34.6903125 11.703125 34.015625 C10.00972463 23.68004343 7.61387733 14.35675057 1.171875 5.9375 C0 4 0 4 0 0 Z " fill="#EAE7E4" transform="translate(172,57)"/>
<path d="M0 0 C2.36606496 1.55273013 3.59395484 2.85192098 5 5.3125 C5.1875 8.0625 5.1875 8.0625 5 10.3125 C3.68 10.3125 2.36 10.3125 1 10.3125 C0.67 11.3025 0.34 12.2925 0 13.3125 C-3.26460973 11.50837357 -4.88929795 10.47855307 -7 7.3125 C-7 6.3225 -7 5.3325 -7 4.3125 C-6.34 3.9825 -5.68 3.6525 -5 3.3125 C-5 2.3225 -5 1.3325 -5 0.3125 C-2 -0.6875 -2 -0.6875 0 0 Z " fill="#1F1B19" transform="translate(175,43.6875)"/>
<path d="M0 0 C0.33 1.98 0.66 3.96 1 6 C0.12988281 6.25523438 0.12988281 6.25523438 -0.7578125 6.515625 C-5.80356871 8.08097511 -9.75955006 9.84684491 -14 13 C-14 12.01 -14 11.02 -14 10 C-15.32 9.67 -16.64 9.34 -18 9 C-6.78640777 0 -6.78640777 0 0 0 Z " fill="#F0EFEE" transform="translate(125,64)"/>
<path d="M0 0 C1.32 0 2.64 0 4 0 C4.25523438 1.55847656 4.25523438 1.55847656 4.515625 3.1484375 C5.77673084 10.5075376 7.09694238 17.28015769 10.328125 24.08203125 C11 26 11 26 10 29 C10.66 29.33 11.32 29.66 12 30 C11.01 30 10.02 30 9 30 C4.01894098 20.13111033 0 11.28668 0 0 Z " fill="#D2CECB" transform="translate(70,98)"/>
<path d="M0 0 C3.33032315 0.79293408 3.66543314 1.783669 5.4375 4.625 C6.18429064 5.9485428 6.91906697 7.27922128 7.625 8.625 C6.965 8.625 6.305 8.625 5.625 8.625 C5.295 9.615 4.965 10.605 4.625 11.625 C3.14531676 11.48450482 1.66625484 11.33745174 0.1875 11.1875 C-0.63621094 11.10628906 -1.45992188 11.02507812 -2.30859375 10.94140625 C-4.375 10.625 -4.375 10.625 -5.375 9.625 C-5.625 6.1875 -5.625 6.1875 -5.375 2.625 C-2.375 0.625 -2.375 0.625 0 0 Z " fill="#1D1B19" transform="translate(78.375,128.375)"/>
<path d="M0 0 C6.89839702 6.20708645 9.43060784 15.18558346 9.95703125 24.234375 C9.97121094 24.81703125 9.98539063 25.3996875 10 26 C8.68 25.67 7.36 25.34 6 25 C5.91363281 24.33355469 5.82726562 23.66710937 5.73828125 22.98046875 C4.74476188 16.4633463 2.94913184 11.1718386 -0.07421875 5.3125 C-1 3 -1 3 0 0 Z " fill="#E5E4E0" transform="translate(164,68)"/>
<path d="M0 0 C2.2477975 2.05233685 3.0022242 3.00667261 4 6 C6.00016466 7.20882096 6.00016466 7.20882096 8 8 C6.33333333 9.66666667 4.66666667 11.33333333 3 13 C-2.56043956 11.54945055 -2.56043956 11.54945055 -4.5 9.125 C-5 7 -5 7 -4.1875 4.875 C-3.795625 4.25625 -3.40375 3.6375 -3 3 C-2.67 2.34 -2.34 1.68 -2 1 C-1.34 0.67 -0.68 0.34 0 0 Z " fill="#1D1C18" transform="translate(105,117)"/>
<path d="M0 0 C1.69752187 0.25245197 3.38471545 0.57645775 5.0625 0.9375 C5.98160156 1.13214844 6.90070313 1.32679687 7.84765625 1.52734375 C8.91306641 1.76130859 8.91306641 1.76130859 10 2 C10.33 2.99 10.66 3.98 11 5 C9.68 5 8.36 5 7 5 C6.67 6.65 6.34 8.3 6 10 C2.23375329 11.25541557 0.62811066 10.37061958 -3 9 C-2.67 7.68 -2.34 6.36 -2 5 C-1.34 5 -0.68 5 0 5 C-0.2784375 4.0409375 -0.2784375 4.0409375 -0.5625 3.0625 C-0.706875 2.381875 -0.85125 1.70125 -1 1 C-0.67 0.67 -0.34 0.34 0 0 Z " fill="#23221E" transform="translate(120,110)"/>
<path d="M0 0 C0.33 0 0.66 0 1 0 C1 1.65 1 3.3 1 5 C2.32 5.66 3.64 6.32 5 7 C3.68 7.33 2.36 7.66 1 8 C1 9.65 1 11.3 1 13 C0.01 12.34 -0.98 11.68 -2 11 C-4.62531524 10.83286431 -4.62531524 10.83286431 -7 11 C-6.814375 10.05125 -6.62875 9.1025 -6.4375 8.125 C-5.71313368 5.10131207 -5.71313368 5.10131207 -7 3 C-6.21625 3.061875 -5.4325 3.12375 -4.625 3.1875 C-3.75875 3.125625 -2.8925 3.06375 -2 3 C-1.34 2.01 -0.68 1.02 0 0 Z " fill="#D9D6D3" transform="translate(146,137)"/>
<path d="M0 0 C0.66 0.33 1.32 0.66 2 1 C2 1.66 2 2.32 2 3 C3.98 2.67 5.96 2.34 8 2 C7.67 2.78375 7.34 3.5675 7 4.375 C5.88133489 6.84332497 5.88133489 6.84332497 6 9 C6.66 9 7.32 9 8 9 C8 9.66 8 10.32 8 11 C5.03 10.505 5.03 10.505 2 10 C1.67 10.99 1.34 11.98 1 13 C0.67 13 0.34 13 0 13 C0 11.35 0 9.7 0 8 C-1.32 7.34 -2.64 6.68 -4 6 C-2.68 5.67 -1.36 5.34 0 5 C0 3.35 0 1.7 0 0 Z " fill="#D4D1CE" transform="translate(111,41)"/>
<path d="M0 0 C7.15595346 0.70156407 14.01855181 2.30785021 21 4 C21 4.99 21 5.98 21 7 C19.22950311 7.05410687 17.45853151 7.09284119 15.6875 7.125 C14.20830078 7.15980469 14.20830078 7.15980469 12.69921875 7.1953125 C10 7 10 7 7 5 C7.33 4.34 7.66 3.68 8 3 C7.34 3 6.68 3 6 3 C6 3.66 6 4.32 6 5 C5.34 4.67 4.68 4.34 4 4 C4.33 3.34 4.66 2.68 5 2 C4.01 2.33 3.02 2.66 2 3 C2 2.34 2 1.68 2 1 C1.34 0.67 0.68 0.34 0 0 Z " fill="#585552" transform="translate(106,147)"/>
<path d="M0 0 C0.66 0.33 1.32 0.66 2 1 C2 1.66 2 2.32 2 3 C3.98 3 5.96 3 8 3 C7.01 4.485 7.01 4.485 6 6 C5.83286431 8.62531524 5.83286431 8.62531524 6 11 C3.69 11 1.38 11 -1 11 C-1 9.68 -1 8.36 -1 7 C-2.32 6.34 -3.64 5.68 -5 5 C-3.68 4.67 -2.36 4.34 -1 4 C-0.67 2.68 -0.34 1.36 0 0 Z " fill="#DAD8D4" transform="translate(163,125)"/>
<path d="M0 0 C1.1446875 0.2784375 1.1446875 0.2784375 2.3125 0.5625 C5.08967375 1.22819173 5.08967375 1.22819173 8 0 C8 1.65 8 3.3 8 5 C8.66 5.33 9.32 5.66 10 6 C10 6.66 10 7.32 10 8 C8.35 8 6.7 8 5 8 C4.67 8.99 4.34 9.98 4 11 C3.67 10.01 3.34 9.02 3 8 C1.35 8 -0.3 8 -2 8 C-2 7.34 -2 6.68 -2 6 C-1.34 5.67 -0.68 5.34 0 5 C0 3.35 0 1.7 0 0 Z " fill="#DBDAD7" transform="translate(173,106)"/>
<path d="M0 0 C1.1446875 0.2784375 1.1446875 0.2784375 2.3125 0.5625 C5.08967375 1.22819173 5.08967375 1.22819173 8 0 C8.12375 0.61875 8.2475 1.2375 8.375 1.875 C8.87197356 4.19120832 8.87197356 4.19120832 11 6 C10.01 6.33 9.02 6.66 8 7 C7.67 7.99 7.34 8.98 7 10 C6.34 10 5.68 10 5 10 C5 9.34 5 8.68 5 8 C3.02 8 1.04 8 -1 8 C-0.649375 7.236875 -0.29875 6.47375 0.0625 5.6875 C1.32360884 2.95240621 1.32360884 2.95240621 0 0 Z " fill="#DEDED9" transform="translate(88,55)"/>
<path d="M0 0 C0.66 0.99 1.32 1.98 2 3 C2.556875 3.7425 3.11375 4.485 3.6875 5.25 C5.40972165 8.85846441 4.82759899 11.16295016 4 15 C4.99 15 5.98 15 7 15 C6.67 15.99 6.34 16.98 6 18 C-0.48880597 11.68656716 -0.48880597 11.68656716 -2 9 C-1.75 6.5 -1.75 6.5 -1 4 C-0.814375 3.236875 -0.62875 2.47375 -0.4375 1.6875 C-0.293125 1.130625 -0.14875 0.57375 0 0 Z " fill="#CCCBC8" transform="translate(104,103)"/>
<path d="M0 0 C5.54768697 3.42651254 8.66921244 9.04159571 11 15 C10.6640625 17.34375 10.6640625 17.34375 10 19 C7.24016749 17.62008374 6.86388231 15.95648479 5.5625 13.1875 C4.30845532 10.52609484 3.18109055 8.22625666 1.33984375 5.92578125 C0 4 0 4 0 0 Z " fill="#E6E5E1" transform="translate(172,57)"/>
<path d="M0 0 C0.99 0 1.98 0 3 0 C4.32 5.28 5.64 10.56 7 16 C6.34 16 5.68 16 5 16 C4.67 16.66 4.34 17.32 4 18 C3.32187886 16.1291122 2.6580054 14.25305707 2 12.375 C1.443125 10.80878906 1.443125 10.80878906 0.875 9.2109375 C-0.00483564 5.98225494 -0.15988262 3.32755706 0 0 Z " fill="#C9C7C3" transform="translate(84,98)"/>
<path d="M0 0 C0.66 0.33 1.32 0.66 2 1 C2 1.99 2 2.98 2 4 C3.65 4 5.3 4 7 4 C6.34 4.66 5.68 5.32 5 6 C4.83318891 9.08347826 4.83318891 9.08347826 5 12 C4.236875 11.649375 3.47375 11.29875 2.6875 10.9375 C-0.04759379 9.67639116 -0.04759379 9.67639116 -3 11 C-2.67 9.35 -2.34 7.7 -2 6 C-2.99 5.67 -3.98 5.34 -5 5 C-5 4.67 -5 4.34 -5 4 C-3.35 4 -1.7 4 0 4 C0 2.68 0 1.36 0 0 Z " fill="#E2DFDE" transform="translate(80,74)"/>
<path d="M0 0 C0.66 0 1.32 0 2 0 C3.515625 1.79296875 3.515625 1.79296875 5.25 4.1875 C8.19406117 8.10057082 11.10442682 11.05456662 15 14 C14.67 14.66 14.34 15.32 14 16 C12.02 15.01 10.04 14.02 8 13 C7.67 13.66 7.34 14.32 7 15 C7 14.34 7 13.68 7 13 C6.34 13 5.68 13 5 13 C5.103125 12.319375 5.20625 11.63875 5.3125 10.9375 C4.91356629 7.18752312 3.37515057 5.36824795 1.09375 2.453125 C0 1 0 1 0 0 Z " fill="#373531" transform="translate(80,128)"/>
<path d="M0 0 C3.81311305 1.4980087 5.72483551 3.62648024 8 7 C8.75 9.8125 8.75 9.8125 9 12 C4.44573816 14.66590937 1.26053037 15.31563182 -4 15 C-4 14.67 -4 14.34 -4 14 C-2.02 14 -0.04 14 2 14 C2 13.34 2 12.68 2 12 C2.66 11.67 3.32 11.34 4 11 C3.48964169 6.6109185 2.47785723 3.66291938 0 0 Z " fill="#A8A8A6" transform="translate(128,99)"/>
<path d="M0 0 C1.08667969 0.20367187 2.17335938 0.40734375 3.29296875 0.6171875 C4.54013672 0.86855469 4.54013672 0.86855469 5.8125 1.125 C5.8125 2.445 5.8125 3.765 5.8125 5.125 C3.87365111 4.84243908 1.93644039 4.5486207 0 4.25 C-1.07894531 4.08757812 -2.15789062 3.92515625 -3.26953125 3.7578125 C-6.1875 3.125 -6.1875 3.125 -9.1875 1.125 C-5.43214902 -1.37856732 -4.31860586 -0.8358592 0 0 Z " fill="#9B9994" transform="translate(121.1875,135.875)"/>
<path d="M0 0 C2 2 2 2 2.1953125 5.4765625 C2.18201493 6.85950968 2.15816232 8.24238654 2.125 9.625 C2.11597656 10.33140625 2.10695312 11.0378125 2.09765625 11.765625 C2.07407603 13.51056098 2.03820461 15.25532295 2 17 C1.01 16.67 0.02 16.34 -1 16 C-1.02692484 13.70839681 -1.04636124 11.41670454 -1.0625 9.125 C-1.07410156 7.84882812 -1.08570313 6.57265625 -1.09765625 5.2578125 C-1 2 -1 2 0 0 Z " fill="#464543" transform="translate(197,86)"/>
<path d="M0 0 C1.10844919 3.32534757 0.84454356 5.62182575 0 9 C-1.29315061 8.04367001 -2.58446853 7.08486149 -3.875 6.125 C-4.59429687 5.59132813 -5.31359375 5.05765625 -6.0546875 4.5078125 C-8 3 -8 3 -10 1 C-6.59437148 0.22157062 -3.49234244 -0.09978121 0 0 Z " fill="#2A2725" transform="translate(153,66)"/>
<path d="M0 0 C0.33 1.98 0.66 3.96 1 6 C-1.31 6.33 -3.62 6.66 -6 7 C-7.125 3.25 -7.125 3.25 -6 1 C-3 0 -3 0 0 0 Z " fill="#E3E2DF" transform="translate(125,64)"/>
<path d="M0 0 C2.97 0.495 2.97 0.495 6 1 C4 3 4 3 1.56982422 3.22705078 C0.5748291 3.21657715 -0.42016602 3.20610352 -1.4453125 3.1953125 C-2.52167969 3.18886719 -3.59804687 3.18242187 -4.70703125 3.17578125 C-5.83496094 3.15902344 -6.96289062 3.14226562 -8.125 3.125 C-9.26066406 3.11597656 -10.39632812 3.10695312 -11.56640625 3.09765625 C-14.37781299 3.07403098 -17.18880298 3.04109013 -20 3 C-20 2.67 -20 2.34 -20 2 C-17.60458732 1.80414865 -15.20907226 1.61807893 -12.8125 1.4375 C-11.80219727 1.35338867 -11.80219727 1.35338867 -10.77148438 1.26757812 C-6.982869 0.99036237 -3.68172206 1.03488839 0 2 C0 1.34 0 0.68 0 0 Z " fill="#363530" transform="translate(137,162)"/>
<path d="M0 0 C2.31 0.33 4.62 0.66 7 1 C6.23883449 2.15227823 5.46567307 3.2966386 4.6875 4.4375 C4.25824219 5.07558594 3.82898438 5.71367187 3.38671875 6.37109375 C2 8 2 8 -1 9 C-1 5.88772805 -0.54372951 3.05847848 0 0 Z " fill="#1B1A15" transform="translate(86,141)"/>
<path d="M0 0 C3.39417765 3.12621626 5.6062718 5.56541027 7 10 C5.35 10 3.7 10 2 10 C1.87625 9.21625 1.7525 8.4325 1.625 7.625 C1.20882007 4.85942178 1.20882007 4.85942178 -1 3 C-0.67 2.01 -0.34 1.02 0 0 Z " fill="#272522" transform="translate(146,77)"/>
<path d="M0 0 C1.32 0 2.64 0 4 0 C3.67 4.29 3.34 8.58 3 13 C0.89172945 9.83759418 0.66182535 8.49342531 0.375 4.8125 C0.30023438 3.91144531 0.22546875 3.01039062 0.1484375 2.08203125 C0.09945312 1.39496094 0.05046875 0.70789063 0 0 Z " fill="#C8C7C3" transform="translate(70,98)"/>
<path d="M0 0 C0.79921875 0.00902344 1.5984375 0.01804687 2.421875 0.02734375 C3.02515625 0.03894531 3.6284375 0.05054687 4.25 0.0625 C3.92 0.7225 3.59 1.3825 3.25 2.0625 C0.94 2.0625 -1.37 2.0625 -3.75 2.0625 C-3.75 2.7225 -3.75 3.3825 -3.75 4.0625 C-6.125 4.6875 -6.125 4.6875 -8.75 5.0625 C-9.41 4.4025 -10.07 3.7425 -10.75 3.0625 C-7.55037281 -0.13712719 -4.37969494 -0.06440728 0 0 Z " fill="#BCBAB8" transform="translate(127.75,120.9375)"/>
<path d="M0 0 C1.17571451 3.67410785 1.07366746 7.16929183 1 11 C0.01 11 -0.98 11 -2 11 C-2.66 9.02 -3.32 7.04 -4 5 C-3.01 5 -2.02 5 -1 5 C-0.67 3.35 -0.34 1.7 0 0 Z " fill="#E3E2E0" transform="translate(103,100)"/>
<path d="M0 0 C2.91387197 0.2913872 3.82565583 0.79452294 5.75 3.0625 C6.1625 3.701875 6.575 4.34125 7 5 C6.01 6.485 6.01 6.485 5 8 C3.02 5.69 1.04 3.38 -1 1 C-0.67 0.67 -0.34 0.34 0 0 Z " fill="#D6D5D1" transform="translate(166,52)"/>
<path d="M0 0 C1.258125 -0.04125 2.51625 -0.0825 3.8125 -0.125 C4.52019531 -0.14820313 5.22789062 -0.17140625 5.95703125 -0.1953125 C8 0 8 0 11 2 C10.34 2.66 9.68 3.32 9 4 C6.8359375 3.9765625 6.8359375 3.9765625 4.375 3.625 C3.55773437 3.51414063 2.74046875 3.40328125 1.8984375 3.2890625 C1.27195313 3.19367187 0.64546875 3.09828125 0 3 C0 2.01 0 1.02 0 0 Z " fill="#D9D8D4" transform="translate(131,51)"/>
<path d="M0 0 C0.66 0.66 1.32 1.32 2 2 C1.01 2.66 0.02 3.32 -1 4 C-2.05432279 7.33868884 -2.10493755 9.68518735 -1 13 C-1.99 13 -2.98 13 -4 13 C-4.91409198 9.42673137 -5.30435891 7.63770438 -3.6875 4.25 C-2 2 -2 2 0 0 Z " fill="#6B6A66" transform="translate(121,97)"/>
<path d="M0 0 C0.99 0 1.98 0 3 0 C6.07692308 5.41538462 6.07692308 5.41538462 5.6875 8.375 C5.460625 8.91125 5.23375 9.4475 5 10 C3 9 3 9 2.1484375 6.93359375 C1.89320313 6.10988281 1.63796875 5.28617187 1.375 4.4375 C1.11460937 3.61121094 0.85421875 2.78492187 0.5859375 1.93359375 C0.39257812 1.29550781 0.19921875 0.65742187 0 0 Z " fill="#EFEEEA" transform="translate(177,66)"/>
<path d="M0 0 C0.99 0 1.98 0 3 0 C3 3.63 3 7.26 3 11 C2.34 10.67 1.68 10.34 1 10 C0.5859375 7.71484375 0.5859375 7.71484375 0.375 4.9375 C0.30023438 4.01839844 0.22546875 3.09929687 0.1484375 2.15234375 C0.09945312 1.44207031 0.05046875 0.73179688 0 0 Z " fill="#E5E4E0" transform="translate(84,98)"/>
<path d="M0 0 C2.84383123 1.2748209 5.13754018 2.45137078 7 5 C6.57421875 7.1015625 6.57421875 7.1015625 6 9 C4.99105628 8.07213211 3.99309093 7.13231567 3 6.1875 C2.1646875 5.40439453 2.1646875 5.40439453 1.3125 4.60546875 C0 3 0 3 0 0 Z " fill="#EFEFEA" transform="translate(157,62)"/>
<path d="M0 0 C7.42857143 -0.28571429 7.42857143 -0.28571429 11 2 C11 2.66 11 3.32 11 4 C8.36 3.67 5.72 3.34 3 3 C3 2.34 3 1.68 3 1 C2.01 0.67 1.02 0.34 0 0 Z " fill="#EBEAE6" transform="translate(137,53)"/>
<path d="M0 0 C0.33 0 0.66 0 1 0 C1.33 3.3 1.66 6.6 2 10 C0.68 9.67 -0.64 9.34 -2 9 C-2.20140476 5.37471432 -1.85776765 3.13498292 0 0 Z " fill="#C9C7C4" transform="translate(172,84)"/>
<path d="M0 0 C1.65 0 3.3 0 5 0 C2.525 3.465 2.525 3.465 0 7 C-0.66 6.01 -1.32 5.02 -2 4 C-1.34 2.68 -0.68 1.36 0 0 Z " fill="#403F3C" transform="translate(178,139)"/>
<path d="M0 0 C1.5625 1.6875 1.5625 1.6875 3 4 C2.8125 6.6875 2.8125 6.6875 2 9 C1.01 9.495 1.01 9.495 0 10 C-1.125 2.25 -1.125 2.25 0 0 Z " fill="#2C2B28" transform="translate(139,84)"/>
<path d="M0 0 C2.31 0 4.62 0 7 0 C7 0.66 7 1.32 7 2 C9.97 2.495 9.97 2.495 13 3 C13 3.33 13 3.66 13 4 C8.28596212 3.52060632 4.33420699 3.03165952 0 1 C0 0.67 0 0.34 0 0 Z " fill="#37322F" transform="translate(104,160)"/>
<path d="M0 0 C0.433125 0.45375 0.86625 0.9075 1.3125 1.375 C3.10798342 3.20024334 3.10798342 3.20024334 6 5 C5.01 5.99 4.02 6.98 3 8 C0.9375 5.6875 0.9375 5.6875 -1 3 C-0.67 2.01 -0.34 1.02 0 0 Z " fill="#272622" transform="translate(96,118)"/>
<path d="M0 0 C2.31 0.66 4.62 1.32 7 2 C5 4 5 4 1.375 4.125 C0.26125 4.08375 -0.8525 4.0425 -2 4 C-1.34 2.68 -0.68 1.36 0 0 Z " fill="#DEDFDD" transform="translate(123,96)"/>
<path d="M0 0 C1.9375 0.3125 1.9375 0.3125 4 1 C4.33 1.99 4.66 2.98 5 4 C3.35 4.33 1.7 4.66 0 5 C0 3.35 0 1.7 0 0 Z " fill="#2D2C28" transform="translate(136,71)"/>
<path d="M0 0 C2.3431213 0.25561323 4.67843403 0.59270772 7 1 C7.33 1.66 7.66 2.32 8 3 C5.36 3 2.72 3 0 3 C0 2.01 0 1.02 0 0 Z " fill="#EAE9E5" transform="translate(131,37)"/>
<path d="M0 0 C0.66 0.33 1.32 0.66 2 1 C2.40729228 3.32156597 2.74438677 5.6568787 3 8 C1.68 8 0.36 8 -1 8 C-0.67 5.36 -0.34 2.72 0 0 Z " fill="#918F8B" transform="translate(73,105)"/>
<path d="M0 0 C1.5625 1.75 1.5625 1.75 3 4 C2.6875 6.25 2.6875 6.25 2 8 C2.66 8.33 3.32 8.66 4 9 C3.01 9 2.02 9 1 9 C-1.09230769 4.56923077 -1.09230769 4.56923077 -0.625 1.6875 C-0.41875 1.130625 -0.2125 0.57375 0 0 Z " fill="#A2A09E" transform="translate(78,119)"/>
<path d="M0 0 C1.69752187 0.25245197 3.38471545 0.57645775 5.0625 0.9375 C5.98160156 1.13214844 6.90070313 1.32679687 7.84765625 1.52734375 C8.91306641 1.76130859 8.91306641 1.76130859 10 2 C10 2.33 10 2.66 10 3 C3.25 4.125 3.25 4.125 1 3 C0.67 3.66 0.34 4.32 0 5 C-0.5625 3.0625 -0.5625 3.0625 -1 1 C-0.67 0.67 -0.34 0.34 0 0 Z " fill="#565754" transform="translate(120,110)"/>
<path d="M0 0 C0.66 0.66 1.32 1.32 2 2 C-0.31 4.31 -2.62 6.62 -5 9 C-5.66 8.67 -6.32 8.34 -7 8 C-4.69 5.36 -2.38 2.72 0 0 Z " fill="#DAD9D5" transform="translate(151,108)"/>
<path d="M0 0 C0.66 0.99 1.32 1.98 2 3 C1.125 5.6875 1.125 5.6875 0 8 C-2 5 -2 5 -1.6875 2.875 C-1 1 -1 1 0 0 Z " fill="#D2D1CD" transform="translate(183,74)"/>
<path d="M0 0 C0.99 0 1.98 0 3 0 C3 1.32 3 2.64 3 4 C3.66 4 4.32 4 5 4 C4.67 5.32 4.34 6.64 4 8 C3.34 6.35 2.68 4.7 2 3 C1.34 3 0.68 3 0 3 C0 2.01 0 1.02 0 0 Z " fill="#3A3835" transform="translate(125,65)"/>
<path d="M0 0 C0.66 0.33 1.32 0.66 2 1 C2 1.66 2 2.32 2 3 C2.99 3.33 3.98 3.66 5 4 C3.02 4.99 3.02 4.99 1 6 C0.01 4.68 -0.98 3.36 -2 2 C-1.34 2 -0.68 2 0 2 C0 1.34 0 0.68 0 0 Z " fill="#D3D2CF" transform="translate(97,123)"/>
<path d="M0 0 C1.77706209 2.66559313 2.87548273 5.0280615 4 8 C3.01 8 2.02 8 1 8 C-0.42944945 5.64561267 -1.08661261 4.51967567 -0.625 1.75 C-0.41875 1.1725 -0.2125 0.595 0 0 Z " fill="#BFBEBC" transform="translate(104,103)"/>
<path d="M0 0 C0.66 0.33 1.32 0.66 2 1 C-0.625 5.875 -0.625 5.875 -4 7 C-3.67 5.35 -3.34 3.7 -3 2 C-2.34 2 -1.68 2 -1 2 C-0.67 1.34 -0.34 0.68 0 0 Z " fill="#2E2B28" transform="translate(65,72)"/>
<path d="M0 0 C0.99 0.33 1.98 0.66 3 1 C2.67 2.32 2.34 3.64 2 5 C0.68 5 -0.64 5 -2 5 C-1.34 3.35 -0.68 1.7 0 0 Z " fill="#393737" transform="translate(68,61)"/>
</svg>
